{"title":"Isolation 2005 DVDRip Xvid BigPerm LKRG","uid":6635471,"size":1000601832,"categoryP":"video","categoryS":"movies","magnet":"?xt=urn:btih:388c7bff87d9736ff4ab1b431a022d38fd209f4f&amp;dn=Isolation+2005+DVDRip+Xvid+BigPerm+LKRG&amp;tr=udp%3A%2F%2Ftracker.openbittorrent.com%3A80&amp;tr=udp%3A%2F%2Fopen.demonii.com%3A1337&amp;tr=udp%3A%2F%2Ftracker.coppersurfer.tk%3A6969&amp;tr=udp%3A%2F%2Fexodus.desync.com%3A6969","seeders":1,"leechers":0,"uploader":".BONE.","files":2,"time":1314541550,"description":"PLOT\n\nOn a remote Irish farm, five people become unwilling participants in an experiment that goes nightmarishly wrong.\n &lt;a href=&quot;\nhttp://www.imdb.com/title/tt0446719/&quot; rel=&quot;nofollow&quot; target=&quot;_NEW&quot;&gt;\nhttp://www.imdb.com/title/tt0446719/&lt;/a&gt;\n\n\nEncoded By .......: BigPerm1828\nRuntime ..........: 1h 34mn\nFile Size ........: 954 MB\nResolution .......: 704 x 396\nIMDb URL .........: http://www.imdb.com/title/tt0446719/\nGenre ............: Horror | Thriller\nLanguage .........: English\nVideo\nID : 0\nFormat : MPEG-4 Visual\nFormat profile : Advanced Simple@L5\nFormat settings, BVOP : Yes\nFormat settings, QPel : No\nFormat settings, GMC : No warppoints\nFormat settings, Matrix : Default (H.263)\nCodec ID : XVID\nCodec ID/Hint : XviD\nDuration : 1h 34mn\nBit rate : 1 083 Kbps\nWidth : 704 pixels\nHeight : 396 pixels\nDisplay aspect ratio : 16:9\nFrame rate : 29.970 fps\nColor space : YUV\nChroma subsampling : 4:2:0\nBit depth : 8 bits\nScan type : Progressive\nCompression mode : Lossy\nBits/(Pixel*Frame) : 0.130\nStream size : 733 MiB (77%)\nWriting library : XviD 1.2.1 (UTC 2008-12-04)\n\nAudio\nID : 1\nFormat : AC-3\nFormat/Info : Audio Coding 3\nMode extension : CM (complete main)\nCodec ID : 2000\nDuration : 1h 34mn\nBit rate mode : Constant\nBit rate : 320 Kbps\nChannel(s) : 6 channels\nChannel positions : Front: L C R, Side: L R, LFE\nSampling rate : 48.0 KHz\nBit depth : 16 bits\nCompression mode : Lossy\nVideo delay : 33ms\nStream size : 217 MiB (23%)\nAlignment : Split accross interleaves\nInterleave, duration : 500 ms (14.98 video frames)\nInterleave, preload duration : 500 ms","torrent":{"xt":"urn:btih:388c7bff87d9736ff4ab1b431a022d38fd209f4f","amp;dn":"Isolation+2005+DVDRip+Xvid+BigPerm+LKRG","amp;tr":["udp%3A%2F%2Ftracker.openbittorrent.com%3A80","udp%3A%2F%2Fopen.demonii.com%3A1337","udp%3A%2F%2Ftracker.coppersurfer.tk%3A6969","udp%3A%2F%2Fexodus.desync.com%3A6969"],"infoHash":"388c7bff87d9736ff4ab1b431a022d38fd209f4f","infoHashBuffer":{"type":"Buffer","data":[56,140,123,255,135,217,115,111,244,171,27,67,26,2,45,56,253,32,159,79]},"announce":[],"urlList":[]}}